<svg xmlns="http://www.w3.org/2000/svg" viewBox="0 0 320 320">
  <!-- Cabinet trim: restrained walnut-and-brass molding with mitred leaf relief at the four fixed corners. -->
  <defs>
    <linearGradient id="walnut" x1="0" y1="0" x2="1" y2="1"><stop stop-color="#68452e"/><stop offset=".38" stop-color="#442c1e"/><stop offset=".76" stop-color="#2d2019"/><stop offset="1" stop-color="#765239"/></linearGradient>
    <linearGradient id="brass" x1="0" y1="0" x2="1" y2="1"><stop stop-color="#c6a86c"/><stop offset=".46" stop-color="#8c6c3f"/><stop offset="1" stop-color="#4f402d"/></linearGradient>
    <linearGradient id="edgeLight" x1="0" y1="0" x2="1" y2="1"><stop stop-color="#b58d5d"/><stop offset="1" stop-color="#493121"/></linearGradient>
    <g id="joint">
      <path d="M2 2H46V10H12V46H2Z" fill="url(#brass)" stroke="#241b15" stroke-width="1.5"/>
      <path d="M5 5H41V13H15V41H5Z" fill="url(#walnut)" stroke="#d0ae70" stroke-width="1"/>
      <path d="M9 9L35 9L9 35Z" fill="#775536" stroke="#d2b579" stroke-width="1"/>
      <path d="M11 11C17 7 27 8 32 11C25 12 20 15 16 20C14 25 12 30 9 33C8 25 8 17 11 11Z" fill="#aa8756" stroke="#523e29" stroke-width="1.2"/>
      <path d="M12 12C17 12 22 13 27 15C21 16 17 20 14 25M12 12C14 17 15 22 14 28M14 25C18 21 22 19 27 18" fill="none" stroke="#d6bd87" stroke-width="1.2"/>
      <path d="M4 4H38M4 4V38" fill="none" stroke="#e0c895" stroke-width="1.4"/>
    </g>
  </defs>
  <path fill="url(#walnut)" fill-rule="evenodd" d="M0 0H320V320H0Z M46 46V274H274V46Z"/>
  <path fill="url(#edgeLight)" fill-rule="evenodd" d="M5 5H315V315H5Z M9 9V311H311V9Z"/>
  <path fill="url(#brass)" fill-rule="evenodd" d="M11 11H309V309H11Z M16 16V304H304V16Z"/>
  <path fill="url(#walnut)" fill-rule="evenodd" d="M18 18H302V302H18Z M23 23V297H297V23Z"/>
  <path d="M27 27H293V293H27Z" fill="none" stroke="#9a794d" stroke-width="2"/>
  <path d="M37 37H283V283H37Z" fill="none" stroke="#211915" stroke-width="2"/>
  <path d="M43 43H277V277H43Z" fill="none" stroke="#c3a269" stroke-width="1.5"/>
  <use href="#joint"/><use href="#joint" transform="translate(320) rotate(90)"/><use href="#joint" transform="translate(320 320) rotate(180)"/><use href="#joint" transform="translate(0 320) rotate(270)"/>
</svg>
